<svg 
 xmlns="http://www.w3.org/2000/svg"
 xmlns:xlink="http://www.w3.org/1999/xlink"
 width="40px" height="51px">
<path fill-rule="evenodd"  fill="rgb(243, 243, 243)"
 d="M35.986,21.915 C35.712,22.016 35.453,22.154 35.219,22.328 C34.005,23.231 31.743,25.697 31.743,25.697 C31.813,25.631 30.114,27.292 28.557,28.827 C28.120,29.258 27.386,28.948 27.380,28.331 L27.380,8.445 C27.380,6.496 25.821,5.152 23.934,5.552 C22.429,5.872 21.626,7.288 21.626,8.981 L21.639,23.992 L19.344,23.998 L19.344,3.683 C19.344,1.823 17.867,0.603 16.088,1.076 C14.867,1.400 14.295,2.562 14.295,4.027 L14.295,24.025 L12.007,24.030 L11.994,7.781 C11.994,6.158 11.237,4.726 9.631,4.677 C7.963,4.628 7.160,6.043 7.160,7.718 L7.136,24.057 L4.899,24.062 L4.899,13.352 C4.899,11.665 4.123,10.391 2.445,10.391 C0.776,10.391 -0.000,11.665 -0.000,13.352 L0.002,37.127 C0.839,49.351 7.674,51.000 14.819,51.000 C20.738,51.000 25.474,48.031 28.096,43.285 C28.433,42.735 29.345,41.285 30.427,39.567 C31.965,37.124 33.361,34.938 34.341,33.390 C35.632,31.347 36.815,29.752 38.277,27.831 C38.684,27.296 39.021,26.866 39.182,26.689 C39.623,26.202 39.913,25.597 40.000,24.944 L40.000,24.821 C40.000,22.463 38.176,21.106 35.986,21.915 L35.986,21.915 Z"/>
</svg>