<svg class="banner-icon"
    xmlns="http://www.w3.org/2000/svg"
    xmlns:xlink="http://www.w3.org/1999/xlink"
    width="47px" height="47px">
    <path fill-rule="evenodd"  fill="rgb(243, 243, 243)"
    d="M41.189,33.931 C37.443,37.685 32.461,39.752 27.162,39.752 C21.864,39.752 16.882,37.685 13.135,33.931 C9.388,30.177 7.325,25.185 7.325,19.876 C7.325,14.567 9.388,9.576 13.135,5.822 C16.882,2.067 21.864,-0.000 27.162,-0.000 C32.461,-0.000 37.443,2.067 41.189,5.822 C44.936,9.576 47.000,14.567 47.000,19.876 C47.000,25.185 44.936,30.177 41.189,33.931 ZM37.852,9.166 C31.957,3.260 22.367,3.260 16.473,9.166 C10.579,15.071 10.579,24.681 16.473,30.587 C19.420,33.539 23.291,35.016 27.162,35.016 C31.033,35.016 34.905,33.539 37.852,30.587 C43.746,24.681 43.746,15.071 37.852,9.166 ZM35.905,28.635 C31.084,33.466 23.241,33.466 18.420,28.635 C13.599,23.805 13.599,15.947 18.420,11.117 C20.831,8.702 23.996,7.494 27.162,7.494 C30.328,7.494 33.495,8.702 35.905,11.117 C40.725,15.947 40.725,23.805 35.905,28.635 ZM11.299,35.710 C12.178,36.591 13.127,37.378 14.130,38.068 L6.244,45.929 C5.556,46.618 4.637,47.000 3.659,47.000 C2.682,47.000 1.763,46.618 1.072,45.926 C0.381,45.233 -0.000,44.313 -0.000,43.333 C-0.000,42.354 0.381,41.433 1.072,40.740 L8.953,32.884 C9.640,33.886 10.423,34.832 11.299,35.710 Z"/>
</svg>