<svg 
 xmlns="http://www.w3.org/2000/svg"
 xmlns:xlink="http://www.w3.org/1999/xlink"
 width="30px" height="47px">
<path fill-rule="evenodd"  fill="rgb(243, 243, 243)"
 d="M28.049,18.715 L24.708,18.715 L24.708,9.814 C24.708,4.402 20.356,-0.000 15.007,-0.000 C9.657,-0.000 5.306,4.402 5.306,9.814 L5.306,18.715 L1.950,18.715 C0.875,18.715 -0.000,19.600 -0.000,20.688 L-0.000,45.027 C-0.000,46.115 0.875,47.000 1.950,47.000 L28.049,47.000 C29.125,47.000 30.000,46.115 30.000,45.027 L30.000,20.688 C30.000,19.600 29.125,18.715 28.049,18.715 L28.049,18.715 ZM12.965,9.716 C12.965,8.582 13.878,7.658 15.000,7.658 C16.122,7.658 17.035,8.582 17.035,9.716 L17.035,18.715 L12.965,18.715 L12.965,9.716 ZM23.552,28.272 L12.571,39.381 C12.305,39.650 11.956,39.785 11.607,39.785 C11.259,39.785 10.910,39.650 10.644,39.381 L6.448,35.136 C5.916,34.598 5.916,33.725 6.448,33.186 C6.980,32.648 7.843,32.648 8.375,33.186 L11.608,36.457 L21.625,26.323 C22.157,25.785 23.020,25.785 23.552,26.323 C24.084,26.861 24.084,27.734 23.552,28.272 L23.552,28.272 Z"/>
</svg>