<svg 
 xmlns="http://www.w3.org/2000/svg"
 xmlns:xlink="http://www.w3.org/1999/xlink"
 width="21px" height="21px">
<path fill-rule="evenodd"  fill="rgb(255, 255, 255)"
 d="M10.500,20.992 C4.716,20.992 0.007,16.283 0.007,10.496 C0.007,4.711 4.716,0.002 10.500,0.002 C16.288,0.002 20.997,4.711 20.997,10.496 C20.997,16.283 16.288,20.992 10.500,20.992 ZM10.500,1.199 C5.375,1.199 1.205,5.370 1.205,10.496 C1.205,15.623 5.375,19.792 10.500,19.792 C15.628,19.792 19.796,15.623 19.796,10.496 C19.796,5.370 15.628,1.199 10.500,1.199 ZM14.638,11.096 L11.101,11.096 L11.101,14.633 C11.101,14.967 10.833,15.234 10.500,15.234 C10.170,15.234 9.900,14.967 9.900,14.633 L9.900,11.096 L6.362,11.096 C6.032,11.096 5.761,10.828 5.761,10.496 C5.761,10.165 6.032,9.895 6.362,9.895 L9.900,9.895 L9.900,6.357 C9.900,6.027 10.170,5.757 10.500,5.757 C10.833,5.757 11.101,6.027 11.101,6.357 L11.101,9.895 L14.638,9.895 C14.972,9.895 15.239,10.165 15.239,10.496 C15.239,10.828 14.972,11.096 14.638,11.096 Z"/>
</svg>