<svg 
 xmlns="http://www.w3.org/2000/svg"
 xmlns:xlink="http://www.w3.org/1999/xlink"
 width="17px" height="16px">
<path fill-rule="evenodd"  fill="rgb(137, 137, 137)"
 d="M14.663,12.498 L7.248,12.498 L2.329,16.000 L2.329,12.498 C1.044,12.493 -0.000,11.422 -0.000,10.107 L-0.000,2.390 C-0.000,1.072 1.048,-0.000 2.337,-0.000 L14.663,-0.000 C15.951,-0.000 17.000,1.072 17.000,2.390 L17.000,10.107 C17.000,11.425 15.951,12.498 14.663,12.498 ZM16.004,2.390 C16.004,1.634 15.402,1.018 14.663,1.018 L2.337,1.018 C1.598,1.018 0.996,1.634 0.996,2.390 L0.996,10.107 C0.996,10.863 1.598,11.479 2.337,11.479 L3.325,11.479 L3.325,14.049 L6.935,11.479 L14.663,11.479 C15.402,11.479 16.004,10.863 16.004,10.107 L16.004,2.390 ZM4.550,7.948 L12.450,7.948 L12.450,8.966 L4.550,8.966 L4.550,7.948 ZM4.550,5.774 L12.450,5.774 L12.450,6.793 L4.550,6.793 L4.550,5.774 ZM4.550,3.600 L12.450,3.600 L12.450,4.619 L4.550,4.619 L4.550,3.600 Z"/>
</svg>